inDegrees=no
num_controls=7
num_derivatives=13
num_iterations=218
num_multipliers=7
num_parameters=0
num_slacks=7
num_states=26
objective=5.903205
objective_accelerations=0.791366
objective_balance=0.006810
objective_effort=0.530220
objective_height=4.528028
objective_ligament=0.046782
solver_duration=1809.572223
status=Solve_Succeeded
success=true
DataType=double
version=3
OpenSimVersion=4.4-2022-07-23-0e9fedc
endheader
time	/jointset/ground_pelvis/pelvis_tilt/value	/jointset/ground_pelvis/pelvis_tx/value	/jointset/ground_pelvis/pelvis_ty/value	/jointset/hip_r/hip_flexion_r/value	/jointset/hip_r/hip_adduction_r/value	/jointset/hip_r/hip_rotation_r/value	/jointset/back/lumbar_extension/value	/jointset/patellofemoral_r/patellar_flexion_r/value	/jointset/knee_r/knee_flexion_r/value	/jointset/knee_r/knee_adduction_r/value	/jointset/knee_r/knee_rotation_r/value	/jointset/ankle_r/ankle_angle_r/value	/jointset/subtalar_r/subtalar_angle_r/value	/jointset/ground_pelvis/pelvis_tilt/speed	/jointset/ground_pelvis/pelvis_tx/speed	/jointset/ground_pelvis/pelvis_ty/speed	/jointset/hip_r/hip_flexion_r/speed	/jointset/hip_r/hip_adduction_r/speed	/jointset/hip_r/hip_rotation_r/speed	/jointset/back/lumbar_extension/speed	/jointset/patellofemoral_r/patellar_flexion_r/speed	/jointset/knee_r/knee_flexion_r/speed	/jointset/knee_r/knee_adduction_r/speed	/jointset/knee_r/knee_rotation_r/speed	/jointset/ankle_r/ankle_angle_r/speed	/jointset/subtalar_r/subtalar_angle_r/speed	/forceset/tau_hip_flexion_r	/forceset/tau_hip_adduction_r	/forceset/tau_hip_rotation_r	/forceset/tau_knee_flexion_r	/forceset/tau_ankle_angle_r	/forceset/tau_subtalar_angle_r	/forceset/tau_lumbar_extension	lambda_cid13_p0	lambda_cid14_p0	lambda_cid14_p1	lambda_cid14_p2	lambda_cid14_p3	lambda_cid14_p4	lambda_cid14_p5	/jointset/ground_pelvis/pelvis_tilt/accel	/jointset/ground_pelvis/pelvis_tx/accel	/jointset/ground_pelvis/pelvis_ty/accel	/jointset/hip_r/hip_flexion_r/accel	/jointset/hip_r/hip_adduction_r/accel	/jointset/hip_r/hip_rotation_r/accel	/jointset/back/lumbar_extension/accel	/jointset/patellofemoral_r/patellar_flexion_r/accel	/jointset/knee_r/knee_flexion_r/accel	/jointset/knee_r/knee_adduction_r/accel	/jointset/knee_r/knee_rotation_r/accel	/jointset/ankle_r/ankle_angle_r/accel	/jointset/subtalar_r/subtalar_angle_r/accel	gamma_cid13_p0	gamma_cid14_p0	gamma_cid14_p1	gamma_cid14_p2	gamma_cid14_p3	gamma_cid14_p4	gamma_cid14_p5
1	-0.2604918322747914	-0.03130691889119852	0.5613252799986193	1.644644269116128	-0.2435580836741416	-0.03749126775601421	-0.7853980836665529	1.698302628061959	1.698302628061959	-0.1745329096633264	0.1745296176254082	0.4361816180793781	0.1646159469149628	0.06848508643014177	0.004567566914534767	0.01665865379593637	-0.1023885375743301	-0.001237113860327749	-0.003634189252735461	-1.075374956184977e-05	-0.01791965241611317	-0.01791965241611316	0.002312830838223397	-0.0005194678307764096	0.01617025713534899	0.005779527871191264	-0.3613750438648146	0.004987854479067411	0.003115159568319177	-0.5103246605807819	0.0009912743886241247	0.008541013193738215	0.3767327956288002	-0.03885046083262437	-52.71482989590537	-8.504324746057705	5.185860754279403	12.94153813258949	-792.6170830934063	80.89549440128215	1.045611137839959	0.003237045465542656	2.246033343736578	-6.232929855048153	0.2159958743172499	-1.150326103847798	-0.01114384660442697	-5.881017051813236	-5.881017051813251	0.4160772408276964	-0.02785836986257827	-0.8605908185508651	0.009069937365035583	4.296406798898563e-10	1.010893167154945e-09	-1.578272948641461e-09	5.049019730354851e-09	-2.2765362630693e-09	-4.421046853722388e-09	-4.670339424307431e-09
1.01	-0.2597552090493245	-0.03126106941500575	0.5616040521426563	1.643309442940877	-0.2435594573024157	-0.03758174089787752	-0.7853981550092329	1.697829710472985	1.697829710472985	-0.1744858268448667	0.1745226441582593	0.4363002487442069	0.164674461784148	0.07883914856331706	0.004606215820691914	0.03909329580984317	-0.1645692664449008	0.0009618528417821358	-0.01438632841539784	-1.202414785694479e-06	-0.0766626477062466	-0.07666264770624713	0.007181339051964906	-0.000867939990048272	0.007544737812693153	0.005914751723160502	-0.3608102944503063	0.00490414352786375	0.003208572142645262	-0.5106586148480681	0.00138992065299778	0.008570827798070835	0.3764432583412531	-0.0388584401564337	-52.5741690130392	-8.463810903035888	5.176047549451669	12.83444188378991	-792.4834397564688	81.0235631629823	1.030243567361604	0.00476028011317234	2.241805217679402	-6.209528563868471	0.2217721330099883	-1.02653941981479	0.007351484541695649	-5.870759286033073	-5.870759286033147	0.5338769388146477	-0.03723772902905098	-0.8652028742986526	0.01445406595797955	5.792305509199008e-09	8.782321874688684e-09	3.062249678321357e-08	4.044712948207474e-08	-8.227736238535244e-09	-1.257905673951007e-08	7.672275518122904e-08
1.02	-0.2589150572392636	-0.03121471715636694	0.5621070958243247	1.641353032644761	-0.243538856250698	-0.0377775117508344	-0.7853980614666941	1.696769399227425	1.696769399227425	-0.1743877310788361	0.1745124067515043	0.4363322901387737	0.164734069983222	0.08919080334870241	0.004668123403741619	0.06151296132221552	-0.2267053617477511	0.003157822137976609	-0.02469373147163345	2.222336091154326e-05	-0.1353983837331671	-0.135398383733168	0.012515420352397	-0.00117225575210261	-0.001147596916990754	0.005998193848934382	-0.3602455450357936	0.004820432576662	0.003301984716971315	-0.5109925691153537	0.001788566917371471	0.008600642402407089	0.376153721053711	-0.03887821053533323	-52.43986028760085	-8.422908906805816	5.164458317549027	12.7430365156925	-792.4403700353906	81.16609684355416	1.045129668281975	0.00788878084405119	2.243038043429686	-6.22400314150407	0.2153963931341682	-1.061378882562443	-0.008368958420113995	-5.879565199170649	-5.879565199170631	0.5091918581658125	-0.019027090419073	-0.873953899956486	-0.001286407874038137	1.523583917652284e-08	2.241291214148788e-08	7.74170475498558e-08	1.009589827382169e-07	-1.893526655990906e-08	-2.281977514942789e-08	2.119024963688118e-07
1.03	-0.2579713059604787	-0.03116761492203528	0.5628341666388932	1.638775677671469	-0.2434963103548297	-0.03807419958870313	-0.7853978355354839	1.695121888130178	1.695121888130177	-0.1742340727622806	0.1744993940409247	0.4362769123715243	0.1647941727393823	0.09956777229188853	0.004757598460372283	0.08388929520317055	-0.2887387775785181	0.005353517452822958	-0.03458624082403117	8.739762365897627e-06	-0.1940912946156834	-0.1940912946156828	0.01826984734389962	-0.001425669672292369	-0.009954343795618683	0.006011324917823774	-0.3592779835495631	0.004728394977174821	0.003465324027654775	-0.5110557428821154	0.002342836813213403	0.008646444351203351	0.3755289154859249	-0.03890745486506524	-52.22178634210783	-8.355260384666943	5.142738160664251	12.6083473905865	-791.9207181187846	81.30917161684597	1.03523451738852	0.01026211427943572	2.233138423637345	-6.188976765851543	0.2219999017578378	-0.9445368055593454	2.84705947356346e-05	-5.862277869385712	-5.862277869385507	0.616598889929224	-0.0277603412581847	-0.8879918789546438	0.0009966974136891523	2.472101436260194e-08	3.610328977113676e-08	1.243605144495062e-07	1.617270986831798e-07	-2.969133086440442e-08	-3.308174568714298e-08	3.476310808888647e-07
1.04	-0.2569235341902519	-0.03111946088789593	0.5637846422649131	1.635578795347469	-0.2434317387455936	-0.03846808248889181	-0.7853981633974483	1.692887823156787	1.692887823156786	-0.1740212640217521	0.1744839948314556	0.4361326757760607	0.1648540835728603	0.1099949016371385	0.004878483365280194	0.1061939236124801	-0.3506108318888269	0.007562964811588085	-0.04413274393566526	-9.008258952163521e-05	-0.2527091589619443	-0.2527091589619424	0.02434550514687168	-0.00164955553005255	-0.01891936255979473	0.005959809312443692	-0.3583104220633386	0.004636357377687797	0.003628663338334327	-0.5111189166488775	0.002897106709056309	0.00869224630000048	0.3749041099181329	-0.03894802097839896	-52.01007779967091	-8.286892543852201	5.118808251306225	12.48928478678171	-791.4925181166976	81.46915435410428	1.055161748694752	0.01417075049949835	2.228696949100589	-6.191730837412424	0.218146801917924	-0.9921776344097173	-0.02543670908881276	-5.864555891919597	-5.864555891919603	0.5734380204597025	-0.01312147793315779	-0.9056082770661131	-0.01421574272793357	3.354508598163817e-08	4.626420375719066e-08	1.685761199820276e-07	2.186953718061667e-07	-3.308580561386819e-08	-4.312262568077281e-08	4.718357849737662e-07
